<mxfile host="app.diagrams.net" modified="2021-01-02T10:27:52.564Z" agent="5.0 (Windows NT 10.0; Win64; x64) AppleWebKit/537.36 (KHTML, like Gecko) Chrome/87.0.4280.88 Safari/537.36" etag="HtOTYgvOoW41wndzD_Ii" version="14.1.7" type="github">
  <diagram name="Page-1" id="13e1069c-82ec-6db2-03f1-153e76fe0fe0">
    <mxGraphModel dx="1056" dy="601" grid="1" gridSize="10" guides="1" tooltips="1" connect="1" arrows="1" fold="1" page="1" pageScale="1" pageWidth="1100" pageHeight="850" background="#ffffff" math="0" shadow="0">
      <root>
        <mxCell id="0" />
        <mxCell id="1" parent="0" />
        <mxCell id="asdhkFeUrT_0oHcq7WQL-1" value="سفارش غذا" style="shape=note;whiteSpace=wrap;html=1;size=14;verticalAlign=top;align=left;spacingTop=-6;rounded=0;shadow=0;comic=0;labelBackgroundColor=none;strokeWidth=1;fontFamily=Verdana;fontSize=12" parent="1" vertex="1">
          <mxGeometry width="100" height="35" as="geometry" />
        </mxCell>
        <mxCell id="asdhkFeUrT_0oHcq7WQL-2" value="" style="shape=umlLifeline;participant=umlActor;perimeter=lifelinePerimeter;whiteSpace=wrap;html=1;container=1;collapsible=0;recursiveResize=0;verticalAlign=top;spacingTop=36;outlineConnect=0;" parent="1" vertex="1">
          <mxGeometry x="118" y="109" width="20" height="731" as="geometry" />
        </mxCell>
        <mxCell id="asdhkFeUrT_0oHcq7WQL-3" value="" style="html=1;points=[];perimeter=orthogonalPerimeter;rounded=0;shadow=0;comic=0;labelBackgroundColor=none;strokeWidth=1;fontFamily=Verdana;fontSize=12;align=center;" parent="asdhkFeUrT_0oHcq7WQL-2" vertex="1">
          <mxGeometry x="5" y="90" width="10" height="600" as="geometry" />
        </mxCell>
        <mxCell id="asdhkFeUrT_0oHcq7WQL-4" value="خریدار" style="text;html=1;align=center;verticalAlign=middle;resizable=0;points=[];autosize=1;" parent="1" vertex="1">
          <mxGeometry x="108" y="80" width="40" height="20" as="geometry" />
        </mxCell>
        <mxCell id="asdhkFeUrT_0oHcq7WQL-5" value="سیستم" style="shape=umlLifeline;perimeter=lifelinePerimeter;whiteSpace=wrap;html=1;container=1;collapsible=0;recursiveResize=0;outlineConnect=0;" parent="1" vertex="1">
          <mxGeometry x="271" y="109" width="100" height="731" as="geometry" />
        </mxCell>
        <mxCell id="asdhkFeUrT_0oHcq7WQL-6" value="" style="html=1;points=[];perimeter=orthogonalPerimeter;rounded=0;shadow=0;comic=0;labelBackgroundColor=none;strokeWidth=1;fontFamily=Verdana;fontSize=12;align=center;" parent="asdhkFeUrT_0oHcq7WQL-5" vertex="1">
          <mxGeometry x="45" y="90" width="10" height="600" as="geometry" />
        </mxCell>
        <mxCell id="asdhkFeUrT_0oHcq7WQL-8" value="(رستوران (دیتابیس" style="shape=umlLifeline;perimeter=lifelinePerimeter;whiteSpace=wrap;html=1;container=1;collapsible=0;recursiveResize=0;outlineConnect=0;rounded=1;shadow=0;comic=0;labelBackgroundColor=none;strokeWidth=1;fontFamily=Verdana;fontSize=12;align=center;" parent="1" vertex="1">
          <mxGeometry x="501" y="109" width="100" height="731" as="geometry" />
        </mxCell>
        <mxCell id="asdhkFeUrT_0oHcq7WQL-10" value="" style="html=1;points=[];perimeter=orthogonalPerimeter;rounded=0;shadow=0;comic=0;labelBackgroundColor=none;strokeWidth=1;fontFamily=Verdana;fontSize=12;align=center;" parent="asdhkFeUrT_0oHcq7WQL-8" vertex="1">
          <mxGeometry x="45" y="161" width="10" height="59" as="geometry" />
        </mxCell>
        <mxCell id="asdhkFeUrT_0oHcq7WQL-11" value="انتخاب یک رستوران" style="html=1;verticalAlign=bottom;endArrow=block;exitX=0.8;exitY=0.093;exitDx=0;exitDy=0;exitPerimeter=0;" parent="1" source="asdhkFeUrT_0oHcq7WQL-3" target="asdhkFeUrT_0oHcq7WQL-5" edge="1">
          <mxGeometry x="-0.0501" y="10" width="80" relative="1" as="geometry">
            <mxPoint x="191" y="230" as="sourcePoint" />
            <mxPoint x="261" y="230" as="targetPoint" />
            <mxPoint x="-1" as="offset" />
          </mxGeometry>
        </mxCell>
        <mxCell id="asdhkFeUrT_0oHcq7WQL-13" value="دریافت اطلاعات رستوران" style="html=1;verticalAlign=bottom;endArrow=block;exitX=1.08;exitY=0.137;exitDx=0;exitDy=0;exitPerimeter=0;" parent="1" source="asdhkFeUrT_0oHcq7WQL-6" target="asdhkFeUrT_0oHcq7WQL-8" edge="1">
          <mxGeometry x="-0.0585" y="11" width="80" relative="1" as="geometry">
            <mxPoint x="321" y="281" as="sourcePoint" />
            <mxPoint x="481" y="350" as="targetPoint" />
            <Array as="points">
              <mxPoint x="431" y="281" />
            </Array>
            <mxPoint as="offset" />
          </mxGeometry>
        </mxCell>
        <mxCell id="asdhkFeUrT_0oHcq7WQL-17" value="اطلاعات نمایه فروش رستوران" style="html=1;verticalAlign=bottom;endArrow=open;dashed=1;endSize=8;entryX=0.979;entryY=0.203;entryDx=0;entryDy=0;entryPerimeter=0;" parent="1" source="asdhkFeUrT_0oHcq7WQL-8" target="asdhkFeUrT_0oHcq7WQL-6" edge="1">
          <mxGeometry x="0.0376" y="-10" relative="1" as="geometry">
            <mxPoint x="471" y="300" as="sourcePoint" />
            <mxPoint x="381" y="320" as="targetPoint" />
            <Array as="points">
              <mxPoint x="471" y="320" />
              <mxPoint x="431" y="320" />
            </Array>
            <mxPoint x="1" as="offset" />
          </mxGeometry>
        </mxCell>
        <mxCell id="asdhkFeUrT_0oHcq7WQL-18" value="نمایش نمایه فروش رستوران" style="html=1;verticalAlign=bottom;endArrow=block;entryX=1.019;entryY=0.266;entryDx=0;entryDy=0;entryPerimeter=0;" parent="1" target="asdhkFeUrT_0oHcq7WQL-3" edge="1">
          <mxGeometry x="-0.0958" y="-8" width="80" relative="1" as="geometry">
            <mxPoint x="318" y="358" as="sourcePoint" />
            <mxPoint x="436.79999999999995" y="399.998" as="targetPoint" />
            <Array as="points">
              <mxPoint x="231" y="358" />
            </Array>
            <mxPoint as="offset" />
          </mxGeometry>
        </mxCell>
        <mxCell id="asdhkFeUrT_0oHcq7WQL-19" value="انتخاب غذا و ثبت سفارش" style="html=1;verticalAlign=bottom;endArrow=block;" parent="1" source="asdhkFeUrT_0oHcq7WQL-3" target="asdhkFeUrT_0oHcq7WQL-5" edge="1">
          <mxGeometry x="-0.0613" y="10" width="80" relative="1" as="geometry">
            <mxPoint x="151" y="400" as="sourcePoint" />
            <mxPoint x="436.79999999999995" y="439.698" as="targetPoint" />
            <Array as="points">
              <mxPoint x="241" y="400" />
            </Array>
            <mxPoint as="offset" />
          </mxGeometry>
        </mxCell>
        <mxCell id="asdhkFeUrT_0oHcq7WQL-20" value="نمایش خلاصه لیست خرید" style="html=1;verticalAlign=bottom;endArrow=open;dashed=1;endSize=8;exitX=0.026;exitY=0.403;exitDx=0;exitDy=0;exitPerimeter=0;" parent="1" source="asdhkFeUrT_0oHcq7WQL-6" edge="1">
          <mxGeometry x="0.0501" y="-10" relative="1" as="geometry">
            <mxPoint x="388.33000000000004" y="400" as="sourcePoint" />
            <mxPoint x="131" y="440" as="targetPoint" />
            <mxPoint x="1" as="offset" />
          </mxGeometry>
        </mxCell>
        <mxCell id="asdhkFeUrT_0oHcq7WQL-23" value="خریدار" style="shape=umlLifeline;perimeter=lifelinePerimeter;whiteSpace=wrap;html=1;container=1;collapsible=0;recursiveResize=0;outlineConnect=0;rounded=1;shadow=0;comic=0;labelBackgroundColor=none;strokeWidth=1;fontFamily=Verdana;fontSize=12;align=center;" parent="1" vertex="1">
          <mxGeometry x="721" y="109" width="100" height="731" as="geometry" />
        </mxCell>
        <mxCell id="asdhkFeUrT_0oHcq7WQL-24" value="" style="html=1;points=[];perimeter=orthogonalPerimeter;rounded=0;shadow=0;comic=0;labelBackgroundColor=none;strokeWidth=1;fontFamily=Verdana;fontSize=12;align=center;" parent="asdhkFeUrT_0oHcq7WQL-23" vertex="1">
          <mxGeometry x="45" y="400" width="10" height="220" as="geometry" />
        </mxCell>
        <mxCell id="asdhkFeUrT_0oHcq7WQL-25" value="درخواست شارژ کیف پول" style="html=1;verticalAlign=bottom;endArrow=block;exitX=0.969;exitY=0.468;exitDx=0;exitDy=0;exitPerimeter=0;entryX=-0.045;entryY=0.469;entryDx=0;entryDy=0;entryPerimeter=0;" parent="1" source="asdhkFeUrT_0oHcq7WQL-3" edge="1" target="asdhkFeUrT_0oHcq7WQL-6">
          <mxGeometry x="-0.0501" y="10" width="80" relative="1" as="geometry">
            <mxPoint x="128" y="480" as="sourcePoint" />
            <mxPoint x="321" y="480" as="targetPoint" />
            <mxPoint x="-1" as="offset" />
          </mxGeometry>
        </mxCell>
        <mxCell id="asdhkFeUrT_0oHcq7WQL-26" value="() شارژ کیف پول" style="html=1;verticalAlign=bottom;endArrow=block;exitX=1.029;exitY=0.534;exitDx=0;exitDy=0;exitPerimeter=0;" parent="1" source="asdhkFeUrT_0oHcq7WQL-6" target="asdhkFeUrT_0oHcq7WQL-23" edge="1">
          <mxGeometry x="0.0252" y="10" width="80" relative="1" as="geometry">
            <mxPoint x="391" y="550" as="sourcePoint" />
            <mxPoint x="590.5" y="490" as="targetPoint" />
            <Array as="points">
              <mxPoint x="431" y="520" />
            </Array>
            <mxPoint as="offset" />
          </mxGeometry>
        </mxCell>
        <mxCell id="asdhkFeUrT_0oHcq7WQL-27" value="پیام تایید" style="html=1;verticalAlign=bottom;endArrow=open;dashed=1;endSize=8;entryX=1.029;entryY=0.599;entryDx=0;entryDy=0;entryPerimeter=0;exitX=0.017;exitY=0.226;exitDx=0;exitDy=0;exitPerimeter=0;" parent="1" source="asdhkFeUrT_0oHcq7WQL-24" target="asdhkFeUrT_0oHcq7WQL-6" edge="1">
          <mxGeometry x="0.0211" relative="1" as="geometry">
            <mxPoint x="461" y="570" as="sourcePoint" />
            <mxPoint x="321" y="560" as="targetPoint" />
            <mxPoint as="offset" />
          </mxGeometry>
        </mxCell>
        <mxCell id="asdhkFeUrT_0oHcq7WQL-29" value="تایید شارژ کیف پول" style="html=1;verticalAlign=bottom;endArrow=open;dashed=1;endSize=8;exitX=-0.074;exitY=0.668;exitDx=0;exitDy=0;exitPerimeter=0;entryX=1.119;entryY=0.668;entryDx=0;entryDy=0;entryPerimeter=0;" parent="1" source="asdhkFeUrT_0oHcq7WQL-6" target="asdhkFeUrT_0oHcq7WQL-3" edge="1">
          <mxGeometry x="0.0501" y="-10" relative="1" as="geometry">
            <mxPoint x="231" y="600" as="sourcePoint" />
            <mxPoint x="41.5" y="600" as="targetPoint" />
            <Array as="points">
              <mxPoint x="199.33" y="600" />
              <mxPoint x="159.33" y="600" />
            </Array>
            <mxPoint x="1" as="offset" />
          </mxGeometry>
        </mxCell>
        <mxCell id="asdhkFeUrT_0oHcq7WQL-30" value="پرداخت و ثبت نهایی" style="html=1;verticalAlign=bottom;endArrow=block;" parent="1" source="asdhkFeUrT_0oHcq7WQL-3" edge="1">
          <mxGeometry x="-0.0627" y="10" width="80" relative="1" as="geometry">
            <mxPoint x="191" y="660" as="sourcePoint" />
            <mxPoint x="321" y="641" as="targetPoint" />
            <mxPoint as="offset" />
          </mxGeometry>
        </mxCell>
        <mxCell id="asdhkFeUrT_0oHcq7WQL-31" value="() ثبت سفارش" style="html=1;verticalAlign=bottom;endArrow=block;exitX=1.08;exitY=0.802;exitDx=0;exitDy=0;exitPerimeter=0;" parent="1" source="asdhkFeUrT_0oHcq7WQL-6" target="asdhkFeUrT_0oHcq7WQL-23" edge="1">
          <mxGeometry x="0.0252" y="10" width="80" relative="1" as="geometry">
            <mxPoint x="391" y="670" as="sourcePoint" />
            <mxPoint x="951.3333333333333" y="630" as="targetPoint" />
            <Array as="points">
              <mxPoint x="601" y="680" />
            </Array>
            <mxPoint as="offset" />
          </mxGeometry>
        </mxCell>
        <mxCell id="asdhkFeUrT_0oHcq7WQL-32" value="خرید" style="shape=umlLifeline;perimeter=lifelinePerimeter;whiteSpace=wrap;html=1;container=1;collapsible=0;recursiveResize=0;outlineConnect=0;rounded=1;shadow=0;comic=0;labelBackgroundColor=none;strokeWidth=1;fontFamily=Verdana;fontSize=12;align=center;" parent="1" vertex="1">
          <mxGeometry x="891" y="700" width="100" height="140" as="geometry" />
        </mxCell>
        <mxCell id="asdhkFeUrT_0oHcq7WQL-35" value="" style="html=1;points=[];perimeter=orthogonalPerimeter;rounded=0;shadow=0;comic=0;labelBackgroundColor=none;strokeWidth=1;fontFamily=Verdana;fontSize=12;align=center;" parent="asdhkFeUrT_0oHcq7WQL-32" vertex="1">
          <mxGeometry x="45" y="50" width="10" height="20" as="geometry" />
        </mxCell>
        <mxCell id="asdhkFeUrT_0oHcq7WQL-34" value="ساخت کلاس خرید" style="html=1;verticalAlign=bottom;endArrow=block;entryX=-0.017;entryY=0.136;entryDx=0;entryDy=0;entryPerimeter=0;exitX=1.02;exitY=0.954;exitDx=0;exitDy=0;exitPerimeter=0;" parent="1" source="asdhkFeUrT_0oHcq7WQL-24" target="asdhkFeUrT_0oHcq7WQL-32" edge="1">
          <mxGeometry x="-0.0909" width="80" relative="1" as="geometry">
            <mxPoint x="771" y="719" as="sourcePoint" />
            <mxPoint x="881" y="720" as="targetPoint" />
            <mxPoint x="-1" as="offset" />
          </mxGeometry>
        </mxCell>
        <mxCell id="asdhkFeUrT_0oHcq7WQL-39" value="پیام تایید" style="html=1;verticalAlign=bottom;endArrow=open;dashed=1;endSize=8;exitX=0.12;exitY=0.496;exitDx=0;exitDy=0;exitPerimeter=0;" parent="1" source="asdhkFeUrT_0oHcq7WQL-35" target="asdhkFeUrT_0oHcq7WQL-5" edge="1">
          <mxGeometry x="0.0211" relative="1" as="geometry">
            <mxPoint x="931" y="760" as="sourcePoint" />
            <mxPoint x="241.5" y="800" as="targetPoint" />
            <Array as="points">
              <mxPoint x="361" y="760" />
            </Array>
            <mxPoint as="offset" />
          </mxGeometry>
        </mxCell>
        <mxCell id="asdhkFeUrT_0oHcq7WQL-40" value="تایید سفارش" style="html=1;verticalAlign=bottom;endArrow=open;dashed=1;endSize=8;exitX=0.026;exitY=0.986;exitDx=0;exitDy=0;exitPerimeter=0;" parent="1" source="asdhkFeUrT_0oHcq7WQL-6" target="asdhkFeUrT_0oHcq7WQL-3" edge="1">
          <mxGeometry x="0.0501" y="-10" relative="1" as="geometry">
            <mxPoint x="261" y="760" as="sourcePoint" />
            <mxPoint x="141" y="792" as="targetPoint" />
            <Array as="points">
              <mxPoint x="231" y="790" />
              <mxPoint x="211" y="790" />
            </Array>
            <mxPoint x="1" as="offset" />
          </mxGeometry>
        </mxCell>
      </root>
    </mxGraphModel>
  </diagram>
</mxfile>
